<?xml version='1.0' encoding='utf-8'?>
<svg xmlns="http://www.w3.org/2000/svg" baseProfile="full" height="650" version="1.1" viewBox="0 0 1200 650" width="1200">
  <defs />
  <title>Constructed valuation</title>
  <desc>Attributes, body state, goals, memory, identity, and social meaning feed a context-sensitive subjective value that guides approach and avoidance.</desc>
  <rect fill="white" height="650" width="1200" x="0" y="0" />
  <text fill="#17324d" font-family="Arial, sans-serif" font-size="34" font-weight="bold" text-anchor="middle" x="600" y="48">Value is constructed in context</text>
  <rect fill="#eaf3f8" height="70" rx="16" ry="16" stroke="#2f6f9f" stroke-width="3" width="160" x="110" y="140" />
  <text fill="#17324d" font-family="Arial, sans-serif" font-size="26" font-weight="bold" text-anchor="middle" x="190" y="181.5"><tspan x="190" dy="0">attributes</tspan></text>
  <line stroke="#2f6f9f" stroke-width="3" x1="270" x2="500" y1="175" y2="305" />
  <polygon fill="#2f6f9f" points="500,305 485.00062756615574,305.13721002453775 492.3814864161743,292.0787674437357" />
  <rect fill="#eaf3f8" height="70" rx="16" ry="16" stroke="#2f6f9f" stroke-width="3" width="160" x="110" y="250" />
  <text fill="#17324d" font-family="Arial, sans-serif" font-size="22.03" font-weight="bold" text-anchor="middle" x="190" y="277.508"><tspan x="190" dy="0">body</tspan><tspan x="190" dy="26">state</tspan></text>
  <line stroke="#2f6f9f" stroke-width="3" x1="270" x2="500" y1="285" y2="305" />
  <polygon fill="#2f6f9f" points="500,305 486.4087330123845,311.34645268408684 487.70817725785713,296.40284386115155" />
  <rect fill="#eaf3f8" height="70" rx="16" ry="16" stroke="#2f6f9f" stroke-width="3" width="160" x="110" y="360" />
  <text fill="#17324d" font-family="Arial, sans-serif" font-size="26" font-weight="bold" text-anchor="middle" x="190" y="401.5"><tspan x="190" dy="0">goals</tspan></text>
  <line stroke="#2f6f9f" stroke-width="3" x1="270" x2="500" y1="395" y2="305" />
  <polygon fill="#2f6f9f" points="500,305 490.6357965496136,316.7180072426915 485.1698063209059,302.74936554710524" />
  <rect fill="#eaf3f8" height="70" rx="16" ry="16" stroke="#2f6f9f" stroke-width="3" width="160" x="110" y="470" />
  <text fill="#17324d" font-family="Arial, sans-serif" font-size="26" font-weight="bold" text-anchor="middle" x="190" y="511.5"><tspan x="190" dy="0">memory</tspan></text>
  <line stroke="#2f6f9f" stroke-width="3" x1="270" x2="500" y1="505" y2="305" />
  <polygon fill="#2f6f9f" points="500,305 495.11872708149167,319.18355296443866 485.27604635761986,307.8644701319861" />
  <rect fill="#f7f1e8" height="70" rx="16" ry="16" stroke="#c56a2d" stroke-width="3" width="160" x="940" y="140" />
  <text fill="#17324d" font-family="Arial, sans-serif" font-size="26" font-weight="bold" text-anchor="middle" x="1020" y="181.5"><tspan x="1020" dy="0">identity</tspan></text>
  <line stroke="#c56a2d" stroke-width="3" x1="940" x2="700" y1="175" y2="305" />
  <polygon fill="#c56a2d" points="700,305 707.8502140914107,292.21821066051325 714.994461319522,305.40759015856486" />
  <rect fill="#f7f1e8" height="70" rx="16" ry="16" stroke="#c56a2d" stroke-width="3" width="160" x="940" y="250" />
  <text fill="#17324d" font-family="Arial, sans-serif" font-size="22.03" font-weight="bold" text-anchor="middle" x="1020" y="277.508"><tspan x="1020" dy="0">social</tspan><tspan x="1020" dy="26">meaning</tspan></text>
  <line stroke="#c56a2d" stroke-width="3" x1="940" x2="700" y1="285" y2="305" />
  <polygon fill="#c56a2d" points="700,305 712.3226680412023,296.4471143848213 713.5683502390084,311.3953007584945" />
  <rect fill="#f7f1e8" height="70" rx="16" ry="16" stroke="#c56a2d" stroke-width="3" width="160" x="940" y="360" />
  <text fill="#17324d" font-family="Arial, sans-serif" font-size="26" font-weight="bold" text-anchor="middle" x="1020" y="401.5"><tspan x="1020" dy="0">attention</tspan></text>
  <line stroke="#c56a2d" stroke-width="3" x1="940" x2="700" y1="395" y2="305" />
  <polygon fill="#c56a2d" points="700,305 714.7966986231037,302.5387584724287 709.5298469992778,316.5836961359644" />
  <rect fill="#f7f1e8" height="70" rx="16" ry="16" stroke="#c56a2d" stroke-width="3" width="160" x="940" y="470" />
  <text fill="#17324d" font-family="Arial, sans-serif" font-size="26" font-weight="bold" text-anchor="middle" x="1020" y="511.5"><tspan x="1020" dy="0">comparison</tspan></text>
  <line stroke="#c56a2d" stroke-width="3" x1="940" x2="700" y1="505" y2="305" />
  <polygon fill="#c56a2d" points="700,305 714.7808701553703,307.5545797012586 705.1781041604031,319.0778988952193" />
  <circle cx="600" cy="305" fill="#17324d" r="105" />
  <text fill="white" font-family="Arial, sans-serif" font-size="27" font-weight="bold" text-anchor="middle" x="600" y="295">Subjective</text>
  <text fill="white" font-family="Arial, sans-serif" font-size="27" font-weight="bold" text-anchor="middle" x="600" y="335">value now</text>
  <line stroke="#2b7a78" stroke-width="4" x1="600" x2="600" y1="410" y2="540" />
  <polygon fill="#2b7a78" points="600,540 592.5,527.0096189432334 607.5,527.0096189432334" />
  <text fill="#2b7a78" font-family="Arial, sans-serif" font-size="24" font-weight="bold" text-anchor="middle" x="600" y="585">attention • motivation • choice</text>
</svg>