<?xml version="1.0" encoding="UTF-8"?>
<svg xmlns="http://www.w3.org/2000/svg" width="1200" height="760" viewBox="0 0 1200 760" role="img" aria-labelledby="title desc">
  <title id="title">Prospect theory value, probability weighting, and fourfold pattern</title>
  <desc id="desc">A value function is concave for gains, convex and steeper for losses around a reference point. An inverse-S probability-weighting curve emphasizes possibility and certainty. Four cards summarize typical risk attitudes for high- and low-probability gains and losses.</desc>
  <defs>
    <marker id="pt-arrow" viewBox="0 0 10 8" markerWidth="10" markerHeight="8" refX="9" refY="4" orient="auto" markerUnits="userSpaceOnUse">
      <path d="M0.5,0.8 L9,4 L0.5,7.2 z" fill="#66737f"/>
    </marker>
    <style>
      .title { font: 700 32px Arial, sans-serif; fill: #17324d; }
      .panel-title { font: 700 23px Arial, sans-serif; fill: #17324d; }
      .label { font: 700 17px Arial, sans-serif; fill: #17324d; }
      .body { font: 16px Arial, sans-serif; fill: #344b5f; }
      .small { font: 16px Arial, sans-serif; fill: #66737f; }
      .axis { stroke: #66737f; stroke-width: 2; }
    </style>
  </defs>

  <rect width="1200" height="760" fill="#ffffff"/>
  <text class="title" x="600" y="45" text-anchor="middle">Prospect value begins at a reference point, not at final wealth</text>

  <!-- Value function panel -->
  <rect x="25" y="80" width="550" height="420" rx="18" fill="#f7fafc" stroke="#c9d6df" stroke-width="2"/>
  <text class="panel-title" x="300" y="119" text-anchor="middle">1. Value of gains and losses</text>

  <line class="axis" x1="70" y1="300" x2="520" y2="300"/>
  <polygon points="520,290 540,300 520,310" fill="#66737f"/>
  <line class="axis" x1="300" y1="460" x2="300" y2="160"/>
  <polygon points="290,160 300,140 310,160" fill="#66737f"/>
  <text class="small" x="532" y="325" text-anchor="end">gain</text>
  <text class="small" x="76" y="325">loss</text>
  <text class="small" x="320" y="156">subjective value</text>

  <!-- Loss branch and gain branch -->
  <path d="M80 455 C145 445,205 410,248 355 C272 324,287 306,300 300"
        fill="none" stroke="#a74343" stroke-width="6" stroke-linecap="round"/>
  <path d="M300 300 C315 274,333 248,365 226 C410 195,470 177,530 168"
        fill="none" stroke="#2f6f9f" stroke-width="6" stroke-linecap="round"/>

  <circle cx="300" cy="300" r="7" fill="#17324d"/>
  <line x1="300" y1="300" x2="300" y2="475" stroke="#17324d" stroke-width="2" stroke-dasharray="6 5"/>
  <rect x="222" y="438" width="156" height="30" rx="9" fill="#17324d"/>
  <text x="300" y="459" text-anchor="middle" font-family="Arial, sans-serif" font-size="16" font-weight="700" fill="#ffffff">reference point r</text>

  <text x="410" y="203" font-family="Arial, sans-serif" font-size="16" font-weight="700" fill="#2f6f9f">concave gains</text>
  <text x="105" y="426" font-family="Arial, sans-serif" font-size="16" font-weight="700" fill="#a74343">convex losses</text>

  <path d="M265 276 L240 242" fill="none" stroke="#c56a2d" stroke-width="2.5"/>
  <rect x="65" y="160" width="206" height="78" rx="12" fill="#f7f1e8" stroke="#c56a2d" stroke-width="2"/>
  <text class="label" x="168" y="188" text-anchor="middle">Loss aversion</text>
  <text class="small" x="168" y="212" text-anchor="middle">loss side often steeper</text>
  <text class="small" x="168" y="230" text-anchor="middle">near the reference point</text>

  <text class="body" x="300" y="490" text-anchor="middle">Sensitivity diminishes as distance from r grows.</text>

  <!-- Probability weighting panel -->
  <rect x="625" y="80" width="550" height="420" rx="18" fill="#f7fafc" stroke="#c9d6df" stroke-width="2"/>
  <text class="panel-title" x="900" y="119" text-anchor="middle">2. Probability becomes decision weight</text>

  <line class="axis" x1="690" y1="450" x2="1110" y2="450"/>
  <polygon points="1110,440 1130,450 1110,460" fill="#66737f"/>
  <line class="axis" x1="690" y1="450" x2="690" y2="155"/>
  <polygon points="680,155 690,135 700,155" fill="#66737f"/>
  <text class="small" x="1120" y="475" text-anchor="end">objective probability p</text>
  <text class="small" x="710" y="151">decision weight w(p)</text>

  <line x1="690" y1="450" x2="1110" y2="140" stroke="#9aa9b5" stroke-width="2.5" stroke-dasharray="8 7"/>
  <text class="small" x="980" y="206" transform="rotate(-36 980 206)">w(p) = p</text>

  <path d="M690 450 C704 395,725 372,760 354 C820 324,870 318,915 307 C972 291,1023 261,1065 224 C1088 203,1100 174,1110 140"
        fill="none" stroke="#447c55" stroke-width="6" stroke-linecap="round"/>

  <circle cx="690" cy="450" r="6" fill="#447c55"/>
  <circle cx="1110" cy="140" r="6" fill="#447c55"/>

  <rect x="712" y="377" width="155" height="62" rx="11" fill="#eef6ed" stroke="#447c55" stroke-width="2"/>
  <text class="label" x="790" y="402" text-anchor="middle">Possibility</text>
  <text class="small" x="790" y="425" text-anchor="middle">0 → small p feels large</text>

  <rect x="940" y="142" width="154" height="62" rx="11" fill="#eaf3f8" stroke="#2f6f9f" stroke-width="2"/>
  <text class="label" x="1017" y="167" text-anchor="middle">Certainty</text>
  <text class="small" x="1017" y="190" text-anchor="middle">near 1 → 1 is special</text>

  <line x1="900" y1="450" x2="900" y2="458" stroke="#66737f" stroke-width="2"/>
  <line x1="1110" y1="450" x2="1110" y2="458" stroke="#66737f" stroke-width="2"/>
  <text class="small" x="690" y="475" text-anchor="middle">0</text>
  <text class="small" x="900" y="475" text-anchor="middle">0.5</text>
  <text class="small" x="1110" y="475" text-anchor="middle">1</text>

  <text class="body" x="900" y="490" text-anchor="middle">Weights influence choice; they need not be stated beliefs.</text>

  <!-- Fourfold pattern -->
  <rect x="25" y="520" width="1150" height="205" rx="18" fill="#f7fafc" stroke="#c9d6df" stroke-width="2"/>
  <text class="panel-title" x="600" y="555" text-anchor="middle">3. The fourfold pattern</text>

  <rect x="48" y="578" width="260" height="122" rx="14" fill="#eaf3f8" stroke="#2f6f9f" stroke-width="2.5"/>
  <text class="label" x="178" y="606" text-anchor="middle">HIGH-PROBABILITY GAIN</text>
  <text x="178" y="641" text-anchor="middle" font-family="Arial, sans-serif" font-size="20" font-weight="700" fill="#2f6f9f">Risk averse</text>
  <text class="small" x="178" y="670" text-anchor="middle">protect the likely gain • certainty</text>
  <text class="small" x="178" y="690" text-anchor="middle">example: sure payoff</text>

  <rect x="329" y="578" width="260" height="122" rx="14" fill="#eef6ed" stroke="#447c55" stroke-width="2.5"/>
  <text class="label" x="459" y="606" text-anchor="middle">LOW-PROBABILITY GAIN</text>
  <text x="459" y="641" text-anchor="middle" font-family="Arial, sans-serif" font-size="20" font-weight="700" fill="#447c55">Risk seeking</text>
  <text class="small" x="459" y="670" text-anchor="middle">pursue the possibility</text>
  <text class="small" x="459" y="690" text-anchor="middle">example: lottery</text>

  <rect x="610" y="578" width="260" height="122" rx="14" fill="#f9e7e7" stroke="#a74343" stroke-width="2.5"/>
  <text class="label" x="740" y="606" text-anchor="middle">HIGH-PROBABILITY LOSS</text>
  <text x="740" y="641" text-anchor="middle" font-family="Arial, sans-serif" font-size="20" font-weight="700" fill="#a74343">Risk seeking</text>
  <text class="small" x="740" y="670" text-anchor="middle">gamble to avoid the loss</text>
  <text class="small" x="740" y="690" text-anchor="middle">example: break-even attempt</text>

  <rect x="891" y="578" width="260" height="122" rx="14" fill="#f7f1e8" stroke="#c56a2d" stroke-width="2.5"/>
  <text class="label" x="1021" y="606" text-anchor="middle">LOW-PROBABILITY LOSS</text>
  <text x="1021" y="641" text-anchor="middle" font-family="Arial, sans-serif" font-size="20" font-weight="700" fill="#c56a2d">Risk averse</text>
  <text class="small" x="1021" y="670" text-anchor="middle">pay to remove the possibility</text>
  <text class="small" x="1021" y="690" text-anchor="middle">example: insurance</text>

</svg>
