<?xml version="1.0" encoding="utf-8" ?>
<svg xmlns="http://www.w3.org/2000/svg" xmlns:ev="http://www.w3.org/2001/xml-events" xmlns:xlink="http://www.w3.org/1999/xlink" baseProfile="full" height="650" version="1.1" viewBox="0 0 1200 650" width="1200">
  <defs/>
  <title>Story-evidence braid</title>
  <desc>Story supplies character, stakes, causal simulation, and action readiness; evidence supplies prevalence, comparison, mechanism, uncertainty, and limits. The strands converge on informed judgment.</desc>
  <rect fill="white" height="650" width="1200" x="0" y="0"/>
  <text fill="#17324d" font-family="Arial, sans-serif" font-size="34" font-weight="bold" text-anchor="middle" x="600" y="48">Story creates meaning; evidence creates proportion</text>
  <text fill="#c56a2d" font-family="Arial, sans-serif" font-size="22" font-weight="bold" text-anchor="start" x="115" y="150">STORY STRAND</text>
  <text fill="#2f6f9f" font-family="Arial, sans-serif" font-size="22" font-weight="bold" text-anchor="start" x="115" y="420">EVIDENCE STRAND</text>
  <rect fill="#f7f1e8" height="80" rx="16" ry="16" stroke="#c56a2d" stroke-width="3" width="160" x="200" y="115"/>
  <text fill="#17324d" font-family="Arial, sans-serif" font-size="26" font-weight="bold" text-anchor="middle" x="280.0" y="147.0">character</text>
  <rect fill="#f7f1e8" height="80" rx="16" ry="16" stroke="#c56a2d" stroke-width="3" width="160" x="400" y="115"/>
  <text fill="#17324d" font-family="Arial, sans-serif" font-size="26" font-weight="bold" text-anchor="middle" x="480.0" y="147.0">stakes</text>
  <rect fill="#f7f1e8" height="80" rx="16" ry="16" stroke="#c56a2d" stroke-width="3" width="160" x="600" y="115"/>
  <text fill="#17324d" font-family="Arial, sans-serif" font-size="26" font-weight="bold" text-anchor="middle" x="680.0" y="147.0">conflict + change</text>
  <rect fill="#f7f1e8" height="80" rx="16" ry="16" stroke="#c56a2d" stroke-width="3" width="160" x="800" y="115"/>
  <text fill="#17324d" font-family="Arial, sans-serif" font-size="26" font-weight="bold" text-anchor="middle" x="880.0" y="147.0">action</text>
  <rect fill="#eaf3f8" height="80" rx="16" ry="16" stroke="#2f6f9f" stroke-width="3" width="160" x="200" y="385"/>
  <text fill="#17324d" font-family="Arial, sans-serif" font-size="26" font-weight="bold" text-anchor="middle" x="280.0" y="417.0">base rate</text>
  <rect fill="#eaf3f8" height="80" rx="16" ry="16" stroke="#2f6f9f" stroke-width="3" width="160" x="400" y="385"/>
  <text fill="#17324d" font-family="Arial, sans-serif" font-size="26" font-weight="bold" text-anchor="middle" x="480.0" y="417.0">comparison</text>
  <rect fill="#eaf3f8" height="80" rx="16" ry="16" stroke="#2f6f9f" stroke-width="3" width="160" x="600" y="385"/>
  <text fill="#17324d" font-family="Arial, sans-serif" font-size="26" font-weight="bold" text-anchor="middle" x="680.0" y="417.0">mechanism</text>
  <rect fill="#eaf3f8" height="80" rx="16" ry="16" stroke="#2f6f9f" stroke-width="3" width="160" x="800" y="385"/>
  <text fill="#17324d" font-family="Arial, sans-serif" font-size="26" font-weight="bold" text-anchor="middle" x="880.0" y="417.0">uncertainty</text>
  <line stroke="#c56a2d" stroke-width="3" x1="360" x2="400" y1="155" y2="155"/>
  <polygon fill="#c56a2d" points="400,155 387.0096189432334,162.5 387.0096189432334,147.5"/>
  <line stroke="#2f6f9f" stroke-width="3" x1="360" x2="400" y1="425" y2="425"/>
  <polygon fill="#2f6f9f" points="400,425 387.0096189432334,432.5 387.0096189432334,417.5"/>
  <line stroke="#c56a2d" stroke-width="3" x1="560" x2="600" y1="155" y2="155"/>
  <polygon fill="#c56a2d" points="600,155 587.0096189432334,162.5 587.0096189432334,147.5"/>
  <line stroke="#2f6f9f" stroke-width="3" x1="560" x2="600" y1="425" y2="425"/>
  <polygon fill="#2f6f9f" points="600,425 587.0096189432334,432.5 587.0096189432334,417.5"/>
  <line stroke="#c56a2d" stroke-width="3" x1="760" x2="800" y1="155" y2="155"/>
  <polygon fill="#c56a2d" points="800,155 787.0096189432334,162.5 787.0096189432334,147.5"/>
  <line stroke="#2f6f9f" stroke-width="3" x1="760" x2="800" y1="425" y2="425"/>
  <polygon fill="#2f6f9f" points="800,425 787.0096189432334,432.5 787.0096189432334,417.5"/>
  <line stroke="#2b7a78" stroke-width="3" x1="480" x2="600" y1="195" y2="385"/>
  <polygon fill="#2b7a78" points="600,385 586.7220607874951,378.02172440577 599.4043943329597,370.01182953495027"/>
  <line stroke="#2b7a78" stroke-width="3" x1="480" x2="600" y1="385" y2="195"/>
  <polygon fill="#2b7a78" points="600,195 599.4043943329597,209.98817046504973 586.7220607874951,201.97827559423"/>
  <line stroke="#c56a2d" stroke-width="4" x1="960" x2="1030" y1="155" y2="265"/>
  <polygon fill="#c56a2d" points="1030,265 1016.698321618381,258.06708198289 1029.3532439343626,250.01394959999263"/>
  <line stroke="#2f6f9f" stroke-width="4" x1="960" x2="1030" y1="425" y2="315"/>
  <polygon fill="#2f6f9f" points="1030,315 1029.3532439343626,329.9860504000074 1016.698321618381,321.93291801711"/>
  <rect fill="#edf4ed" height="115" rx="16" ry="16" stroke="#447c55" stroke-width="3" width="170" x="1000" y="235"/>
  <text fill="#17324d" font-family="Arial, sans-serif" font-size="26" font-weight="bold" text-anchor="middle" x="1085.0" y="284.5">Informed judgment</text>
  <text fill="#66737f" font-family="Arial, sans-serif" font-size="17" font-weight="normal" text-anchor="middle" x="1085.0" y="318.5">attention + scale + agency</text>
  <text fill="#66737f" font-family="Arial, sans-serif" font-size="21" font-weight="normal" text-anchor="middle" x="600" y="575">Anecdote without evidence distorts scale; evidence without lived meaning may never guide action.</text>
</svg>
